<?xml version="1.0" encoding="UTF-8"?>
<!-- Generator: Adobe Illustrator 23.0.0, SVG Export Plug-In . SVG Version: 6.00 Build 0)  -->
<svg version="1.1" id="Layer_1" xmlns="http://www.w3.org/2000/svg" xmlns:xlink="http://www.w3.org/1999/xlink" x="0px" y="0px" viewBox="0 0 600 600" style="enable-background:new 0 0 600 600;" xml:space="preserve">
<style type="text/css">
	.st0{fill:#F5C83B;}
	.st1{fill:#4C6D8E;}
</style>
<rect x="106.6" y="125.9" class="st0" width="161.8" height="159.2"/>
<g>
	<path class="st1" d="M394.9,409.9c-6.1,0-11,4.9-11,11c0,6.1,4.9,11,11,11c6,0,10.9-4.9,10.9-11   C405.8,414.9,400.9,409.9,394.9,409.9z"/>
	<path class="st1" d="M257.6,319.6l-22,17.7l114.9-5.8v-26.7h-50.8C284.4,304.8,269.6,310,257.6,319.6z"/>
	<path class="st1" d="M207.5,409.9c-6.1,0-11,4.9-11,11c0,6.1,4.9,11,11,11c6.1,0,11-4.9,11-11C218.5,414.9,213.6,409.9,207.5,409.9   z"/>
	<path class="st1" d="M145.2,259h88.6c3.1,0,5.6-2.6,5.6-5.7v-88.6c0-3.1-2.5-5.6-5.6-5.6h-88.6c-3.1,0-5.6,2.5-5.6,5.6v88.6   C139.6,256.4,142.1,259,145.2,259z M160.2,169.6c5.7-1,13.7-1.7,24.9-1.7c11.4,0,19.5,2.2,24.9,6.5c5.2,4.1,8.7,10.9,8.7,18.9   c0,8-2.7,14.8-7.5,19.4c-6.3,5.9-15.6,8.6-26.5,8.6c-2.4,0-4.6-0.1-6.3-0.3v29.2h-18.3V169.6z"/>
	<path class="st1" d="M200.5,193.9c0-7.5-5.2-12-14.4-12c-3.8,0-6.3,0.3-7.6,0.7v24.1c1.6,0.4,3.5,0.5,6.2,0.5   C194.4,207.2,200.5,202.2,200.5,193.9z"/>
	<path class="st1" d="M300,2C135.4,2,2,135.4,2,300s133.4,298,298,298s298-133.4,298-298S464.6,2,300,2z M123.1,163.5   c0-11.6,9.3-20.9,20.8-20.9H235c11.5,0,20.9,9.3,20.9,20.9v91.1c0,11.5-9.3,20.8-20.9,20.8h-91.1c-11.5,0-20.8-9.3-20.8-20.8V163.5   z M207.5,457.3c-20.1,0-36.4-16.3-36.4-36.4c0-20.2,16.3-36.4,36.4-36.4c20.1,0,36.4,16.3,36.4,36.4   C244,441,227.6,457.3,207.5,457.3z M394.9,457.3c-20.2,0-36.5-16.3-36.5-36.4c0-20.2,16.3-36.4,36.5-36.4c20,0,36.4,16.3,36.4,36.4   C431.3,441,415,457.3,394.9,457.3z M478.8,419.4c0,3.3-2.7,6.1-6.1,6.1h-32.5c0.2-1.5,0.5-2.9,0.5-4.5c0-25.3-20.5-45.8-45.8-45.8   c-25.3,0-45.8,20.5-45.8,45.8c0,1.6,0.3,3,0.5,4.5h-96.6c0.2-1.5,0.5-2.9,0.5-4.5c0-25.3-20.5-45.8-45.8-45.8   c-25.3,0-45.9,20.5-45.9,45.8c0,1.6,0.3,3,0.4,4.5h-34.9c-3.3,0-6.1-2.7-6.1-6.1v-23.6c0-2.6,2.1-4.7,4.7-4.7v-17.8   c0-8.2,5.6-15.3,13.5-17.3l61.8-15.4l45.9-36.9c14.4-11.6,32.4-17.9,50.8-17.9h82.3c5.3,0,10.3,1.9,14.2,5.4l40.5,36.5l13-0.7   c9.4-0.5,17.5,6.3,18.7,15.6l5.9,48.5c3.4,0,6.1,2.7,6.1,6.1V419.4z"/>
	<path class="st1" d="M377.1,304.8h-7.5v25.7l37.9-1.9l-23.4-21.1C382.2,305.7,379.7,304.8,377.1,304.8z"/>
</g>
</svg>